<?xml version="1.0" standalone="no"?>
<!DOCTYPE svg PUBLIC "-//W3C//DTD SVG 20010904//EN"
 "http://www.w3.org/TR/2001/REC-SVG-20010904/DTD/svg10.dtd">
<svg version="1.0" xmlns="http://www.w3.org/2000/svg"
 width="360.000000pt" height="360.000000pt" viewBox="0 0 360.000000 360.000000"
 preserveAspectRatio="xMidYMid meet">

<g transform="translate(0.000000,360.000000) scale(0.100000,-0.100000)"
fill="#2563eb" stroke="none">
<path d="M1421 3033 c-41 -21 -87 -81 -95 -128 l-7 -35 -112 0 c-75 0 -117 -4
-125 -12 -20 -20 -15 -148 8 -185 41 -69 37 -68 410 -68 316 0 337 1 368 20
44 27 72 87 72 157 0 81 -11 88 -147 88 l-110 0 -7 40 c-7 47 -56 107 -103
126 -44 19 -111 17 -152 -3z m136 -105 c59 -55 -5 -157 -80 -129 -38 15 -60
54 -52 91 13 58 87 80 132 38z"/>
<path d="M705 2798 c-11 -6 -28 -20 -37 -32 -16 -20 -18 -88 -18 -1009 l0
-989 29 -29 29 -29 794 0 c736 0 795 2 814 18 12 9 27 27 33 39 12 24 16 313
4 313 -5 0 -35 -9 -68 -19 l-60 -19 -3 -101 -3 -101 -717 2 -717 3 -3 913 -2
912 111 0 112 0 -7 31 c-3 17 -6 49 -6 70 l0 39 -132 0 c-77 0 -141 -5 -153
-12z"/>
<path d="M2010 2756 c0 -30 -3 -61 -6 -70 -5 -14 8 -16 105 -16 l111 0 0 -215
c0 -198 1 -215 18 -215 9 -1 41 -9 70 -19 l52 -18 0 259 c0 352 3 348 -220
348 l-130 0 0 -54z"/>
<path d="M1128 2433 l-67 -66 -36 32 c-41 36 -61 37 -83 3 -14 -22 -12 -25 45
-82 33 -33 66 -60 73 -60 17 0 188 168 196 192 3 10 0 25 -6 33 -24 29 -54 16
-122 -52z"/>
<path d="M1350 2310 l0 -50 360 0 360 0 0 50 0 50 -360 0 -360 0 0 -50z"/>
<path d="M2003 2165 c-266 -58 -454 -322 -416 -584 16 -104 46 -181 102 -254
167 -221 472 -280 705 -136 l49 30 69 -68 c63 -62 68 -70 62 -100 -6 -31 2
-40 230 -268 171 -170 242 -235 259 -235 30 0 147 117 147 148 0 15 -70 92
-236 258 -227 226 -237 236 -268 230 -29 -6 -37 0 -99 62 l-68 68 34 56 c54
89 72 158 72 273 0 78 -5 115 -24 168 -61 179 -212 313 -396 352 -85 18 -140
18 -222 0z m236 -104 c125 -39 218 -120 274 -239 30 -63 32 -74 32 -177 0
-103 -2 -114 -32 -178 -44 -93 -119 -169 -212 -215 -73 -36 -78 -37 -185 -37
-104 0 -115 2 -178 32 -274 130 -344 477 -140 695 112 120 287 167 441 119z"/>
<path d="M2058 1989 c-82 -12 -88 -25 -12 -32 195 -18 364 -189 383 -388 l7
-74 14 45 c7 25 13 74 13 110 -2 212 -190 370 -405 339z"/>
<path d="M1126 2070 l-72 -70 -29 31 c-35 36 -73 36 -86 1 -8 -20 -1 -32 43
-78 71 -76 81 -74 190 35 48 50 88 96 88 105 0 19 -27 46 -47 46 -8 0 -48 -31
-87 -70z"/>
<path d="M1350 1945 l0 -45 108 0 108 0 19 38 c11 20 21 40 23 45 2 4 -55 7
-127 7 l-131 0 0 -45z"/>
<path d="M1128 1703 l-67 -66 -36 32 c-41 36 -61 37 -82 4 -14 -21 -12 -26 43
-83 31 -33 65 -60 74 -60 20 0 200 181 200 202 0 20 -21 38 -45 38 -12 0 -48
-28 -87 -67z"/>
<path d="M1350 1580 l0 -50 84 0 85 0 -5 38 c-9 63 -8 62 -89 62 l-75 0 0 -50z"/>
<path d="M1130 1339 l-72 -71 -33 32 c-38 37 -73 37 -86 2 -8 -20 -1 -32 43
-78 72 -76 82 -74 190 34 48 49 88 95 88 104 0 20 -26 48 -45 48 -7 0 -45 -32
-85 -71z"/>
<path d="M1350 1215 l0 -45 191 0 191 0 -44 45 -43 45 -147 0 -148 0 0 -45z"/>
</g>
</svg>
