<?xml version="1.0" standalone="no"?>
<!DOCTYPE svg PUBLIC "-//W3C//DTD SVG 20010904//EN"
 "http://www.w3.org/TR/2001/REC-SVG-20010904/DTD/svg10.dtd">
<svg version="1.0" xmlns="http://www.w3.org/2000/svg"
 width="200.000000pt" height="200.000000pt" viewBox="0 0 200.000000 200.000000"
 preserveAspectRatio="xMidYMid meet">

<g transform="translate(0.000000,200.000000) scale(0.100000,-0.100000)"
fill="#2563eb" stroke="none">
<path d="M723 1672 c-144 -43 -264 -80 -267 -83 -3 -3 118 -40 269 -83 l275
-79 153 44 152 44 -75 12 c-41 7 -117 15 -168 19 -74 6 -95 11 -102 25 -23 43
14 65 82 50 23 -6 111 -20 193 -31 83 -12 161 -25 175 -30 28 -11 157 22 130
33 -28 12 -538 157 -547 156 -4 0 -126 -35 -270 -77z"/>
<path d="M973 1594 c-7 -19 15 -36 39 -28 15 4 279 -27 347 -42 l23 -5 -5
-187 c-2 -103 -8 -195 -12 -204 -6 -15 -2 -18 25 -18 30 0 32 2 25 28 -4 15
-6 114 -6 220 1 105 0 192 -2 192 -3 0 -98 14 -212 30 -114 17 -209 30 -211
30 -3 0 -7 -7 -11 -16z"/>
<path d="M661 1423 c1 -193 16 -347 40 -408 33 -86 134 -187 209 -209 68 -20
112 -20 180 0 43 13 67 29 120 82 99 101 110 136 123 395 6 114 8 209 6 211
-3 3 -80 -17 -172 -43 l-167 -48 -151 43 c-83 24 -160 46 -170 49 -18 6 -19 0
-18 -72z m339 -157 c118 0 227 3 243 7 l27 7 0 -74 c0 -271 -217 -437 -403
-308 -84 57 -137 177 -137 308 l0 74 28 -7 c15 -4 124 -7 242 -7z"/>
<path d="M670 779 c-115 -12 -209 -81 -258 -188 -24 -50 -27 -71 -30 -198 l-4
-143 622 0 622 0 -4 143 c-3 128 -6 148 -30 199 -34 74 -104 141 -171 166 -29
11 -89 23 -135 27 -83 7 -84 7 -127 -24 -110 -79 -206 -82 -320 -10 -52 33
-77 38 -165 28z"/>
</g>
</svg>
