<?xml version="1.0" standalone="no"?>
<!DOCTYPE svg PUBLIC "-//W3C//DTD SVG 20010904//EN"
 "http://www.w3.org/TR/2001/REC-SVG-20010904/DTD/svg10.dtd">
<svg version="1.0" xmlns="http://www.w3.org/2000/svg"
 width="200.000000pt" height="200.000000pt" viewBox="0 0 200.000000 200.000000"
 preserveAspectRatio="xMidYMid meet">

<g transform="translate(0.000000,200.000000) scale(0.100000,-0.100000)"
fill="#2563eb" stroke="none">
<path d="M932 1649 c-41 -12 -659 -364 -690 -393 -56 -51 -67 -137 -25 -195
20 -26 639 -387 703 -410 42 -14 118 -14 160 0 64 23 683 384 703 410 42 58
31 144 -25 195 -22 21 -533 316 -640 370 -57 29 -136 39 -186 23z"/>
<path d="M1683 874 l-43 -26 0 -172 c0 -194 7 -221 55 -221 49 0 55 25 55 248
0 151 -3 197 -12 197 -7 -1 -32 -12 -55 -26z"/>
<path d="M472 697 c7 -136 57 -200 213 -277 112 -56 190 -74 315 -74 126 0
202 18 319 75 150 74 211 159 211 296 0 35 -2 63 -5 63 -3 0 -85 -46 -183
-102 -215 -124 -251 -138 -342 -138 -91 0 -127 14 -342 138 -98 56 -180 102
-184 102 -4 0 -5 -38 -2 -83z"/>
</g>
</svg>
